<?xml version="1.0" encoding="UTF-8" standalone="no"?>
<svg
   xmlns:dc="http://purl.org/dc/elements/1.1/"
   xmlns:cc="http://creativecommons.org/ns#"
   xmlns:rdf="http://www.w3.org/1999/02/22-rdf-syntax-ns#"
   xmlns:svg="http://www.w3.org/2000/svg"
   xmlns="http://www.w3.org/2000/svg"
   xmlns:sodipodi="http://sodipodi.sourceforge.net/DTD/sodipodi-0.dtd"
   xmlns:inkscape="http://www.inkscape.org/namespaces/inkscape"
   version="1.1"
   id="svg2"
   viewBox="0 0 960 200"
   height="200"
   width="960"
   inkscape:version="0.91 r13725"
   sodipodi:docname="logo.svg">
  <sodipodi:namedview
     pagecolor="#ffffff"
     bordercolor="#666666"
     borderopacity="1"
     objecttolerance="10"
     gridtolerance="10"
     guidetolerance="10"
     inkscape:pageopacity="0"
     inkscape:pageshadow="2"
     inkscape:window-width="1920"
     inkscape:window-height="1027"
     id="namedview4153"
     showgrid="false"
     inkscape:zoom="1.006108"
     inkscape:cx="479.83178"
     inkscape:cy="70.395601"
     inkscape:window-x="-8"
     inkscape:window-y="-8"
     inkscape:window-maximized="1"
     inkscape:current-layer="svg2" />
  <defs
     id="defs4" />
  <metadata
     id="metadata7">
    <rdf:RDF>
      <cc:Work
         rdf:about="">
        <dc:format>image/svg+xml</dc:format>
        <dc:type
           rdf:resource="http://purl.org/dc/dcmitype/StillImage" />
        <dc:title></dc:title>
      </cc:Work>
    </rdf:RDF>
  </metadata>
  <g
     style="display:none"
     id="layer2"
     transform="translate(0,-56)">
    <rect
       y="0"
       x="0"
       height="256"
       width="1024"
       id="rect4140"
       style="fill:#b00707;fill-opacity:1;fill-rule:nonzero;stroke:none;stroke-width:3;stroke-linecap:round;stroke-linejoin:round;stroke-miterlimit:4;stroke-dasharray:none;stroke-dashoffset:0;stroke-opacity:1" />
  </g>
  <g
     transform="matrix(1.1338408,0,0,1.1428571,-94.949119,-946.13102)"
     id="layer1"
     style="fill:#ffffff;stroke:none">
    <g
       id="text4136"
       style="font-style:normal;font-weight:normal;font-size:40px;line-height:125%;font-family:sans-serif;letter-spacing:0px;word-spacing:0px;fill:#ffffff;fill-opacity:1;stroke:none;stroke-width:1px;stroke-linecap:butt;stroke-linejoin:miter;stroke-opacity:1">
      <path
         id="path4147"
         style="font-style:normal;font-variant:normal;font-weight:bold;font-stretch:normal;font-size:250px;font-family:'Bebas Neue';-inkscape-font-specification:'Bebas Neue Bold';fill:#ffffff;fill-opacity:1;stroke:none"
         d="m 111.24113,905.61469 35.5,0 0,25 -35.5,0 0,70.30551 -27.499995,1.9445 0,-175.00001 72.749995,0 0,25 -45.25,0 z"
         inkscape:connector-curvature="0" />
      <path
         id="path4149"
         style="font-style:normal;font-variant:normal;font-weight:bold;font-stretch:normal;font-size:250px;font-family:'Bebas Neue';-inkscape-font-specification:'Bebas Neue Bold';fill:#ffffff;fill-opacity:1;stroke:none"
         d="m 227.17863,994.20264 c -0.33333,-1.16666 -0.66667,-2.25 -1,-3.25001 -0.33333,-1 -0.66667,-2.25 -1,-3.75 -0.16667,-1.5 -0.33333,-3.41666 -0.5,-5.75 l 0,-8.75 0,-18.83794 c 0,-8.16667 -1.41667,-13.91667 -4.25,-17.25 -2.83333,-3.33333 -7.41667,-5 -13.75,-5 l -9.5,0 0,64.17894 -27.5,1.5026 0,-169.43154 41.5,0 c 14.33333,0 24.66667,3.33333 31,10 6.5,6.66667 9.75,16.75 9.75,30.25 l 0,13.75 c 0,18 -6,29.83333 -18,35.5 7,2.83333 11.75,7.5 14.25,14 2.66667,6.33333 4,14.08333 4,23.25 l 0,18.33794 c 0,4.33334 0.16667,8.16667 0.5,11.5 0.33333,3.16667 1.16667,5.26762 2.5,8.60096 z m -30,-141.33795 0,53.75 10.75,0 c 5.16667,0 9.16667,-1.33333 12,-4 3,-2.66667 4.5,-7.5 4.5,-14.5 l 0,-17.25 c 0,-6.33333 -1.16667,-10.91667 -3.5,-13.75 -2.16667,-2.83333 -5.66667,-4.25 -10.5,-4.25 z"
         inkscape:connector-curvature="0" />
      <path
         id="path4151"
         style="font-style:normal;font-variant:normal;font-weight:bold;font-stretch:normal;font-size:250px;font-family:'Bebas Neue';-inkscape-font-specification:'Bebas Neue Bold';fill:#ffffff;fill-opacity:1;stroke:none"
         d="m 270.26457,828.68228 27.5,0 0,162.6863 -27.5,1 z"
         inkscape:connector-curvature="0" />
      <path
         id="path4153"
         style="font-style:normal;font-variant:normal;font-weight:bold;font-stretch:normal;font-size:250px;font-family:'Bebas Neue';-inkscape-font-specification:'Bebas Neue Bold';fill:#ffffff;fill-opacity:1;stroke:none"
         d="m 345.12785,901.61469 37.75,0 0,25 -37.75,0 0,39.06237 47.5,-1.90035 0,25.00001 -75,1.90035 0,-162.81238 75,0 0,25 -47.5,0 z"
         inkscape:connector-curvature="0" />
      <path
         id="path4155"
         style="font-style:normal;font-variant:normal;font-weight:bold;font-stretch:normal;font-size:250px;font-family:'Bebas Neue';-inkscape-font-specification:'Bebas Neue Bold';fill:#ffffff;fill-opacity:1;stroke:none"
         d="m 433.92473,876.11469 0,112.03126 -24.75,0.34375 0,-160.62501 34.5,0 28.25,104.75 0,-104.75 24.5,0 0,159.8635 -28.25,0.11049 z"
         inkscape:connector-curvature="0" />
      <path
         id="path4157"
         style="font-style:normal;font-variant:normal;font-weight:bold;font-stretch:normal;font-size:250px;font-family:'Bebas Neue';-inkscape-font-specification:'Bebas Neue Bold';fill:#ffffff;fill-opacity:1;stroke:none"
         d="m 516.35832,827.86469 43.5,0 c 13.83333,0 24.08333,3.66667 30.75,11 6.83333,7.33333 10.25,18.08333 10.25,32.25 l 0,73.5 c 0,14.16667 -3.41667,24.91667 -10.25,32.25 -6.66667,7.33334 -16.91667,11.00001 -30.75,11.00001 l -43.5,-0.13258 z m 27.5,25 0,110 15.5,0 c 4.33333,0 7.75,-1.25 10.25,-3.75 2.5,-2.5 3.75,-6.91667 3.75,-13.25 l 0,-76 c 0,-6.33333 -1.25,-10.75 -3.75,-13.25 -2.5,-2.5 -5.91667,-3.75 -10.25,-3.75 z"
         inkscape:connector-curvature="0" />
      <path
         id="path4159"
         style="font-style:normal;font-variant:normal;font-weight:bold;font-stretch:normal;font-size:250px;font-family:'Bebas Neue';-inkscape-font-specification:'Bebas Neue Bold';fill:#ffffff;fill-opacity:1;stroke:none"
         d="m 645.9091,905.61469 35.5,0 0,25 -35.5,0 0,58.76583 -27.5,-0.64082 0,-160.87501 72.75,0 0,25 -45.25,0 z"
         inkscape:connector-curvature="0" />
      <path
         id="path4161"
         style="font-style:normal;font-variant:normal;font-weight:bold;font-stretch:normal;font-size:250px;font-family:'Bebas Neue';-inkscape-font-specification:'Bebas Neue Bold';fill:#ffffff;fill-opacity:1;stroke:none"
         d="m 704.3466,827.86469 27.5,0 0,138.125 45.25,2.875 0,25.00001 -72.75,-2.875 z"
         inkscape:connector-curvature="0" />
      <path
         id="path4163"
         style="font-style:normal;font-variant:normal;font-weight:bold;font-stretch:normal;font-size:250px;font-family:'Bebas Neue';-inkscape-font-specification:'Bebas Neue Bold';fill:#ffffff;fill-opacity:1;stroke:none"
         d="m 789.30754,827.86469 27.5,0 0,167.92894 -27.5,-1.32583 z"
         inkscape:connector-curvature="0" />
      <path
         id="path4165"
         style="font-style:normal;font-variant:normal;font-weight:bold;font-stretch:normal;font-size:250px;font-family:'Bebas Neue';-inkscape-font-specification:'Bebas Neue Bold';fill:#ffffff;fill-opacity:1;stroke:none"
         d="m 928.42082,827.86469 -28.75,85 30.75,90.00001 -29,-2 -22.5,-67.25001 -22.75,64.38865 -25.66161,-1.41421 30.66161,-83.72444 -28.75,-85 28.5,0 20.75,64.5 21.25,-64.5 z"
         inkscape:connector-curvature="0" />
    </g>
  </g>
</svg>
